<?xml version="1.0" encoding="UTF-8"?>
<svg width="768px" height="768px" viewBox="0 0 768 768" version="1.1" xmlns="http://www.w3.org/2000/svg" xmlns:xlink="http://www.w3.org/1999/xlink">
    <!-- Generator: Sketch 51.2 (57519) - http://www.bohemiancoding.com/sketch -->
    <title>CapitalLogo</title>
    <desc>Created with Sketch.</desc>
    <defs></defs>
    <g id="Page-1" stroke="none" stroke-width="1" fill="none" fill-rule="evenodd">
        <circle id="Oval" fill="#000000" cx="384" cy="384" r="384"></circle>
        <g id="US-ArchitectOfTheCapitol-2010Logo" transform="translate(175.000000, 62.000000)" fill="#FFFFFF" fill-rule="nonzero">
            <path d="M211.994459,88.4299154 C219.384964,88.4299154 226.259665,89.4945374 232,91.3244782 C231.701801,88.2086067 230.545271,82.476027 226.041053,78.7391261 C219.613651,73.3614204 221.802796,61.6408299 221.802796,61.6408299 C221.802796,61.6408299 222.626873,55.420786 218.776477,51.9061687 L218.776477,46.8053428 C218.776477,46.8053428 226.945725,35.9836363 221.125803,24.7846325 C221.125803,24.7846325 217.688452,20.6704342 218.239516,18.1317204 C219.259035,13.3857684 217.814381,8.26251911 216.451329,7.12087783 C215.087269,5.99873511 213.449188,0 213.449188,0 L210.790581,0 C210.790581,0 208.922806,5.99873511 207.547664,7.11892797 C206.184612,8.26056925 204.740965,13.3838186 205.771565,18.1297705 C206.31054,20.6684844 202.884272,24.7826827 202.884272,24.7826827 C197.05226,35.9816865 205.199345,46.8033929 205.199345,46.8033929 L205.199345,51.9042189 C201.384209,55.4188361 202.197204,61.63888 202.197204,61.63888 C202.197204,61.63888 204.397431,73.3594706 197.946858,78.7371762 C193.442639,82.4740772 192.298199,88.2066568 192,91.3225283 C197.752424,89.4935624 204.615036,88.4299154 211.994459,88.4299154" id="Shape"></path>
            <path d="M228.473856,162.133587 L223.928511,162.133587 L223.928511,126.17168 L228.473856,126.17168 L228.473856,162.133587 Z M214.209766,162.133587 L209.65335,162.133587 L209.65335,126.17168 L214.209766,126.17168 L214.209766,162.133587 Z M199.945677,162.133587 L195.41241,162.133587 L195.41241,126.17168 L199.945677,126.17168 L199.945677,162.133587 Z M241.797876,164.822591 L241.797876,131.242511 C241.797876,131.242511 252.443605,123.384807 249.478462,113.100701 C249.421092,112.870077 249.284208,112.67143 249.193623,112.439836 C246.217409,103.777854 230.740489,97.1537002 212.023653,97.1537002 C194.25695,97.1537002 179.385943,103.11602 175.380081,111.172371 C175.311639,111.282838 175.26534,111.403964 175.195891,111.514432 C175.12745,111.69176 175.059008,111.845833 174.979494,112.010565 C174.818455,112.374913 174.635272,112.726663 174.521538,113.10167 C171.556395,123.384807 182.202124,131.24348 182.202124,131.24348 L182.202124,164.82356 C176.925055,166.697625 174.990566,170.8634 174.315206,173.310151 C183.175408,170.081409 193.970098,167.987378 205.727001,167.479617 C207.799381,167.35849 209.882831,167.292598 211.999497,167.292598 C216.703868,167.292598 221.226064,167.612371 225.554005,168.174397 C234.596383,169.19961 242.872816,171.193833 249.856905,173.905123 C249.3295,171.622135 247.543973,166.850729 241.797876,164.822591 Z" id="Shape"></path>
            <path d="M40.216424,419.099814 C45.9966518,416.628823 52.232055,414.290691 58.8876202,412.085419 L58.8876202,378.081167 C58.8986244,374.153572 60.8103612,370.98919 63.1652688,370.98919 C65.5311807,370.98919 67.4429175,374.165209 67.4429175,378.081167 C67.4429175,378.444834 67.4319133,378.797832 67.3968998,379.140164 L67.3968998,409.449566 C72.1307243,408.049208 77.0566228,406.724493 82.142583,405.456995 L82.142583,365.38582 C82.1545876,361.448527 84.2473942,358.294813 86.7963766,358.294813 C89.3673675,358.294813 91.4491699,361.460164 91.4491699,365.38582 C91.4491699,365.750456 91.4271614,366.102485 91.3921479,366.434149 L91.3921479,403.30603 C97.012314,402.059867 102.792542,400.912621 108.75484,399.83132 L108.75484,356.561822 C108.765844,352.635196 110.972695,349.459177 113.680738,349.459177 C116.411791,349.459177 118.608638,352.646833 118.608638,356.561822 C118.608638,356.926458 118.585629,357.278487 118.550615,357.632455 L118.550615,398.200156 C124.94508,397.196437 131.533619,396.31394 138.246206,395.519693 C138.450285,395.48672 138.667369,395.44211 138.884452,395.409138 L138.884452,350.132202 C138.895456,346.184241 141.182338,343.041194 143.981417,343.041194 C146.780495,343.041194 149.078381,346.206546 149.078381,350.132202 C149.078381,350.507505 149.056373,350.848867 149.021359,351.191198 L149.021359,394.372447 C155.620903,393.721727 162.33349,393.170893 169.18313,392.75098 C170.081476,392.66273 170.980823,392.563813 171.891174,392.487201 L171.891174,345.554856 C171.913182,341.616592 174.360125,338.473546 177.364283,338.473546 C180.390449,338.473546 182.847396,341.649565 182.847396,345.554856 C182.847396,345.930159 182.825388,346.283158 182.801378,346.613852 L182.801378,391.736594 C190.083185,391.31668 197.457027,391.096541 204.931908,391.019929 L204.931908,343.050892 C204.942912,339.102931 207.388855,335.948247 210.394013,335.948247 C213.442188,335.948247 215.855118,338.948737 215.855118,342.863725 C215.855118,343.228361 215.867123,343.757859 215.820104,344.109888 L215.820104,391.042233 C224.093293,391.152788 232.238432,391.483482 240.271528,392.024617 L240.271528,346.611912 C240.237515,346.281218 240.214506,345.92822 240.214506,345.552916 C240.214506,341.648595 242.660449,338.471606 245.675611,338.471606 C248.691774,338.471606 251.137716,341.614653 251.158724,345.552916 L251.158724,392.870263 C251.738948,392.92651 252.298164,392.992454 252.854378,393.047732 C259.362887,393.499648 265.77936,394.051451 272.049776,394.702171 L272.049776,351.189259 C272.014763,350.846927 271.992754,350.505566 271.992754,350.130262 C271.992754,346.203636 274.278635,343.039255 277.089719,343.039255 C279.900802,343.039255 282.164675,346.182301 282.175679,350.130262 L282.175679,395.74953 C282.858942,395.860084 283.518196,395.981306 284.17745,396.102528 C289.923665,396.830831 295.56784,397.646413 301.062958,398.52891 L301.062958,357.675125 C301.04095,357.322127 301.005936,356.968158 301.005936,356.616129 C301.005936,352.688533 303.224792,349.501847 305.94384,349.501847 C308.663888,349.501847 310.859734,352.667198 310.859734,356.616129 L310.859734,400.204684 C317.094137,401.3529 323.159475,402.575788 328.995724,403.911171 L328.995724,368.846953 C328.962711,368.504622 328.950707,368.140956 328.950707,367.77729 C328.950707,363.861331 331.021505,360.685312 333.593496,360.685312 C336.165487,360.685312 338.246289,363.839996 338.257294,367.77729 L338.257294,406.149415 C343.51432,407.495466 348.566267,408.917158 353.436144,410.417403 L353.436144,379.391336 C353.402131,379.0267 353.390126,378.684368 353.390126,378.33137 C353.390126,374.404744 355.289858,371.228725 357.657771,371.228725 C360.012679,371.228725 361.924415,374.383409 361.934419,378.33137 L361.934419,413.185146 C367.919726,415.236223 373.551897,417.420161 378.785914,419.703985 L378.785914,400.74388 C378.785914,400.74388 388.274571,391.137272 385.487497,375.750794 C384.861256,372.287721 383.598769,368.691789 381.766063,365.096827 C364.814529,330.231413 294.123284,304.091082 209.505671,304.091082 C124.900062,304.091082 54.24283,330.210078 37.266287,365.052217 C35.4005679,368.669484 34.1500859,372.277054 33.5128403,375.750794 C30.7247657,391.137272 40.2134228,400.74388 40.2134228,400.74388" id="Shape"></path>
            <path d="M418.390413,468.948109 C417.651437,465.732237 416.161485,462.373544 413.965556,459.01388 C393.847204,426.560768 309.958908,402.216319 209.499146,402.216319 C109.086383,402.216319 25.2080865,426.526763 5.05573612,458.980847 C2.84980723,462.351198 1.34785564,465.699203 0.609879429,468.948109 C-2.70101385,483.268945 8.54762357,492.231612 8.54762357,492.231612 L8.54762357,512 C16.1683779,509.458392 25.8810649,507.093608 37.356695,504.95034 L37.356695,468.174745 C37.3686946,463.997997 40.2916004,460.649992 43.8964842,460.649992 C47.4903683,460.649992 50.4242737,464.020343 50.4242737,468.174745 C50.4242737,468.561427 50.3902748,468.925763 50.3452763,469.2901 L50.3452763,502.739063 C57.2370541,501.66743 64.6068166,500.661862 72.4085651,499.733048 L72.4085651,457.942246 C72.4305644,453.764526 75.6154618,450.416521 79.5273357,450.416521 C83.4632088,450.416521 86.6131073,453.577014 86.6131073,457.731417 C86.6131073,458.107412 86.6251069,458.703951 86.5681087,459.0576 L86.5681087,498.174661 C95.1888308,497.302198 104.241539,496.539521 113.670235,495.854569 L113.670235,449.333228 C113.681235,445.144821 117.048126,441.808474 121.198992,441.808474 C125.361858,441.808474 128.659752,444.891243 128.659752,449.057304 C128.659752,449.443015 128.72775,450.085218 128.670752,450.449554 L128.670752,494.871348 C137.850456,494.329216 147.34615,493.888126 157.092835,493.522819 L157.092835,443.941055 C157.114835,439.764306 160.595723,436.416301 164.883584,436.416301 C169.194445,436.416301 172.628335,439.621486 172.628335,443.786576 C172.628335,444.173258 172.651334,444.703731 172.595336,445.079726 L172.595336,493.047725 C182.262024,492.804834 192.133706,492.662014 202.198382,492.617322 L202.198382,441.124494 C202.220381,436.946774 205.97426,433.598769 210.580111,433.598769 C215.208962,433.598769 218.893843,436.836987 218.893843,441.003049 C218.893843,441.388759 218.927842,441.886199 218.859845,442.251507 L218.859845,492.617322 C228.960519,492.683388 238.877199,492.849526 248.578887,493.114762 L248.578887,445.080698 C248.520888,444.704703 248.555887,444.208234 248.555887,443.820581 C248.555887,439.666178 251.979777,436.417272 256.278638,436.417272 C260.554501,436.417272 264.024389,439.765278 264.069387,443.942026 L264.069387,493.612203 C273.827073,493.965851 283.345766,494.441917 292.53647,495.005424 L292.502471,450.451497 C292.445473,450.087161 292.490471,449.523654 292.490471,449.136001 C292.490471,444.970911 295.789365,441.810417 299.97423,441.810417 C304.103097,441.810417 307.479988,445.147736 307.491988,449.335171 L307.491988,496.021678 C316.930683,496.718289 325.985392,497.524686 334.595114,498.408808 L334.595114,459.059543 C334.538116,458.705894 334.583114,458.153075 334.583114,457.778052 C334.583114,453.611991 337.699014,450.418464 341.622887,450.418464 C345.547761,450.418464 348.730658,453.766469 348.754658,457.944189 L348.754658,499.988569 C356.566406,500.939729 363.938168,501.966671 370.829946,503.082997 L370.829946,469.292043 C370.771948,468.927707 370.817946,468.452612 370.817946,468.06593 C370.817946,463.921243 373.682854,460.650963 377.266739,460.650963 C380.860623,460.650963 383.782529,463.998969 383.793528,468.175717 L383.793528,505.370055 C394.336188,507.403536 403.332898,509.636188 410.452669,512 L410.452669,492.231612 C410.452669,492.231612 421.700306,483.268945 418.390413,468.948109" id="Shape"></path>
            <path d="M319.312005,285.963336 L317.36806,288.310663 L314.88913,288.310663 L312.990183,285.963336 L312.990183,274.262543 L314.867131,271.684648 L317.437058,271.684648 L319.313005,274.262543 L319.312005,285.963336 Z M301.844497,279.133514 L299.524563,281.811192 L296.555646,281.811192 L294.28071,279.133514 L294.28071,265.81197 L296.532647,262.881444 L299.593561,262.881444 L301.845497,265.81197 L301.845497,279.133514 L301.844497,279.133514 Z M281.372074,274.692676 L278.858145,277.60189 L275.651235,277.60189 L273.194304,274.692676 L273.194304,260.203766 L275.617236,257.019422 L278.950142,257.019422 L281.372074,260.203766 L281.372074,274.692676 Z M261.059646,270.383591 L258.260725,273.30443 L254.690826,273.30443 L251.925903,270.383591 L251.925903,255.906306 L254.632827,252.721962 L258.352722,252.721962 L261.059646,255.906306 L261.059646,270.383591 Z M240.428227,268.279425 L237.539309,271.188639 L233.844413,271.188639 L230.989493,268.279425 L230.989493,253.790514 L233.809414,250.60617 L237.620306,250.60617 L240.429227,253.790514 L240.429227,268.279425 L240.428227,268.279425 Z M217.590871,267.101402 L214.303963,270.021272 L210.108081,270.021272 L206.879172,267.101402 L206.879172,252.623148 L210.063083,249.438804 L214.41896,249.438804 L217.591871,252.623148 L217.591871,267.101402 L217.590871,267.101402 Z M193.46855,268.279425 L190.579632,271.188639 L186.883736,271.188639 L184.040816,268.279425 L184.040816,253.790514 L186.837737,250.60617 L190.671629,250.60617 L193.46855,253.790514 L193.46855,268.279425 Z M172.54214,270.383591 L169.744218,273.30443 L166.161319,273.30443 L163.420397,270.383591 L163.420397,255.906306 L166.12732,252.721962 L169.835216,252.721962 L172.54214,255.906306 L172.54214,270.383591 Z M151.296738,274.692676 L148.772809,277.60189 L145.5659,277.60189 L143.108969,274.692676 L143.108969,260.203766 L145.5429,257.019422 L148.863807,257.019422 L151.297738,260.203766 L151.297738,274.692676 L151.296738,274.692676 Z M130.188333,279.133514 L127.878398,281.811192 L124.910481,281.811192 L122.623546,279.133514 L122.623546,265.81197 L124.875482,262.881444 L127.936396,262.881444 L130.188333,265.81197 L130.188333,279.133514 Z M111.47886,285.963336 L109.555914,288.310663 L107.053984,288.310663 L105.156038,285.963336 L105.156038,274.262543 L107.043985,271.684648 L109.603913,271.684648 L111.47986,274.262543 L111.47986,285.963336 L111.47886,285.963336 Z M342.389355,303.946597 C337.418495,285.4247 330.731684,256.689072 310.418256,230.454805 C288.206881,197.366496 252.244895,175.848197 211.631039,175.848197 C210.039083,175.848197 208.457128,175.903417 206.877172,175.97995 C206.398186,175.991575 205.933199,176.002232 205.443213,176.024513 C205.352215,176.024513 205.273218,176.036139 205.18122,176.036139 C203.577265,176.112671 201.940312,176.245393 200.268359,176.44399 C166.581308,179.814338 136.863145,198.006853 116.686713,225.001603 C93.6223628,252.755869 86.9685502,284.731062 82.4756767,303.616246 C80.5537309,311.714187 71,321.884325 71,321.884325 C72.2389651,321.146123 72.1489676,321.367002 71,321.884325 C71.2719923,321.774854 71.568984,321.652789 71.8419763,321.54235 C104.073068,303.648216 154.013662,292.168302 210.117081,292.168302 C270.201389,292.168302 323.233895,305.356156 355,325.464896 C352.841061,322.710685 344.493296,311.736469 342.389355,303.946597 Z" id="Shape"></path>
        </g>
    </g>
</svg>